<svg width="150" height="94" viewBox="0 0 150 94" fill="none" xmlns="http://www.w3.org/2000/svg">
<path d="M33.5656 21.5652V36.3152C33.5656 36.3152 18.2743 32.0655 12.1201 42.3677C5.96588 52.66 9.8903 64.1212 13.3985 68.1628C16.9067 72.2045 23.1699 73.9974 26.9853 74.2154C30.8106 74.4234 51.6219 73.7894 51.6219 55.7507V21.5652H33.5756H33.5656ZM33.6747 70.9167C33.6747 70.9167 30.4935 74.7404 26.7772 70.9167V39.0789C26.7772 39.0789 29.9584 35.6812 33.6747 39.0789V70.9167Z" fill="white"/>
<path d="M116.424 72.1945V56.9691C116.424 56.9691 131.716 61.3475 137.87 50.7283C144.024 40.1091 140.1 28.2814 136.592 24.1209C133.083 19.9604 126.82 18.0981 123.005 17.8802C119.179 17.6622 98.3682 18.316 98.3682 36.9392C98.3682 55.5624 98.3682 72.2044 98.3682 72.2044H116.415L116.424 72.1945ZM116.315 21.268C116.315 21.268 119.497 17.3254 123.213 21.268V54.1261C123.213 54.1261 120.032 57.6328 116.315 54.1261V21.268Z" fill="white"/>
<path d="M71.2638 21.5652H54.377V56.0577H71.2638V21.5652Z" fill="white"/>
<path d="M71.2639 32.3826C71.2639 32.3826 75.4064 21.7733 82.4128 19.9605C89.4193 18.1576 93.5617 22.6153 93.2446 27.9249C92.9275 33.2345 84.9796 34.1854 82.2642 32.3826C79.5488 30.5797 79.6578 25.0621 81.0353 23.5762C81.0353 23.5762 71.9081 30.1537 71.2639 39.713V32.3925V32.3826Z" fill="white"/>
<path d="M77.2595 39.7129V66.9939C77.2595 66.9939 80.2821 75.8003 88.458 75.9093C96.6339 76.0182 98.1204 73.8884 99.4979 71.7686C99.4979 71.7686 96.2077 73.9974 95.1473 72.6205L94.9392 39.7228H77.2595V39.7129Z" fill="white"/>
<path d="M130.378 73.8885C134.16 73.8885 137.226 70.8239 137.226 67.0435C137.226 63.2631 134.16 60.1985 130.378 60.1985C126.596 60.1985 123.53 63.2631 123.53 67.0435C123.53 70.8239 126.596 73.8885 130.378 73.8885Z" fill="#EDC71A"/>
<path d="M71.2639 20.6045H30.7017V21.5555H71.2639V20.6045Z" fill="white"/>
<path d="M74.0982 55.2751H35.0819V56.2261H74.0982V55.2751Z" fill="white"/>
<path d="M94.9491 38.8115H74.0981V39.7625H94.9491V38.8115Z" fill="white"/>
<path d="M118.833 71.7192H98.3781V72.6702H118.833V71.7192Z" fill="white"/>
</svg>
