<?xml version="1.0" encoding="UTF-8"?>
<svg id="Layer_1" data-name="Layer 1" xmlns="http://www.w3.org/2000/svg" viewBox="0 0 151.36 94.64">
  <defs>
    <style>
      .cls-1 {
        fill: #edc71a;
      }

      .cls-2 {
        fill: #201d1e;
      }
    </style>
  </defs>
  <path class="cls-2" d="m33.87,21.77v14.89s-15.43-4.29-21.64,6.11c-6.21,10.39-2.25,21.96,1.29,26.04s9.86,5.89,13.71,6.11c3.86.21,24.86-.43,24.86-18.64V21.77h-18.21Zm.11,49.82s-3.21,3.86-6.96,0v-32.14s3.21-3.43,6.96,0v32.14Z"/>
  <path class="cls-2" d="m117.48,72.88v-15.37s15.43,4.42,21.64-6.3c6.21-10.72,2.25-22.66-1.29-26.86-3.54-4.2-9.86-6.08-13.71-6.3-3.86-.22-24.86.44-24.86,19.24s0,35.6,0,35.6h18.21Zm-.11-51.41s3.21-3.98,6.96,0v33.17s-3.21,3.54-6.96,0V21.47Z"/>
  <rect class="cls-2" x="54.87" y="21.77" width="17.04" height="34.82"/>
  <path class="cls-2" d="m71.91,32.69s4.18-10.71,11.25-12.54c7.07-1.82,11.25,2.68,10.93,8.04s-8.34,6.32-11.08,4.5-2.63-7.39-1.24-8.89c0,0-9.21,6.64-9.86,16.29v-7.39Z"/>
  <path class="cls-2" d="m77.96,40.09v27.54s3.05,8.89,11.3,9,9.75-2.04,11.14-4.18c0,0-3.32,2.25-4.39.86l-.21-33.21h-17.84Z"/>
  <circle class="cls-1" cx="131.56" cy="67.68" r="6.91"/>
  <rect class="cls-2" x="30.98" y="20.8" width="40.93" height=".96"/>
  <rect class="cls-2" x="35.4" y="55.8" width="39.37" height=".96"/>
  <rect class="cls-2" x="74.77" y="39.18" width="21.04" height=".96"/>
  <rect class="cls-2" x="99.27" y="72.4" width="20.64" height=".96"/>
</svg>